<svg xmlns="http://www.w3.org/2000/svg" viewBox="0 0 320 90" width="100%" height="100%">
    <style>
        .font-academic {
            font-family: -apple-system, BlinkMacSystemFont, "Inter", "Segoe UI", Helvetica, Arial, sans-serif;
            font-size: 52px;
            letter-spacing: -0.04em;
        }
    </style>

    <g transform="translate(10, 5)">
        
        <line x1="36" y1="36" x2="64" y2="36" stroke="#E2E8F0" stroke-width="3" stroke-linecap="round" />
        <circle cx="48" cy="36" r="2" fill="#F97316" /> <line x1="34" y1="44" x2="43" y2="44" stroke="#3B82F6" stroke-width="3" stroke-linecap="round" />
        <path d="M 43 44 Q 49 38 55 44" fill="none" stroke="#94A3B8" stroke-width="1.2" />
        <line x1="55" y1="44" x2="66" y2="44" stroke="#3B82F6" stroke-width="3" stroke-linecap="round" />

        <rect x="37" y="50" width="2.5" height="4" rx="0.5" fill="#CBD5E1" />
        <rect x="42" y="48" width="2.5" height="6" rx="0.5" fill="#CBD5E1" />
        <rect x="47" y="46" width="2.5" height="8" rx="0.5" fill="#10B981" /> <rect x="52" y="49" width="2.5" height="5" rx="0.5" fill="#CBD5E1" />
        <rect x="57" y="51" width="2.5" height="3" rx="0.5" fill="#CBD5E1" />

        <circle cx="50" cy="45" r="18" fill="none" stroke="#0F172A" stroke-width="4.5" />
        
        <path d="M 68 27 L 68 61 C 68 71 60 78 50 78 C 42 78 36 73 36 73" fill="none" stroke="#0F172A" stroke-width="4.5" stroke-linecap="round" stroke-linejoin="round" />

        <text x="76" y="61" class="font-academic">
            <tspan font-weight="800" fill="#0F172A">ene</tspan>
            <tspan font-weight="400" fill="#2563EB">view</tspan>
        </text>
        
    </g>
</svg>
